<?xml version="1.0" encoding="UTF-8"?>
<svg width="400px" height="600px" viewBox="0 0 200 150" version="1.1" xmlns="http://www.w3.org/2000/svg" xmlns:xlink="http://www.w3.org/1999/xlink">
    <!-- Generator: Sketch 57.1 (83088) - https://sketch.com -->
    <title>03_muse_logo_white_small</title>
    <desc>Created with Sketch.</desc>
    <defs>
        <polygon id="path-1" points="0.653911339 0.81772967 61.8198561 0.81772967 61.8198561 39.6688696 0.653911339 39.6688696"></polygon>
        <polygon id="path-3" points="0.470627061 0.614867478 56.3110623 0.614867478 56.3110623 41.1970026 0.470627061 41.1970026"></polygon>
        <polygon id="path-5" points="0.059393113 0.614867478 44.5788839 0.614867478 44.5788839 42.0510954 0.059393113 42.0510954"></polygon>
    </defs>
    <g id="Page-1" stroke="none" stroke-width="1" fill="none" fill-rule="evenodd">
        <g id="03_muse_logo_white_small" transform="translate(-207.000000, -148.000000)">
            <g transform="translate(207.000000, 147.000000)" id="Group-30">
                <g>

                    <path d="M24.8245582,1.10224362 C21.5298382,3.69173927 7.93112932,14.7979208 0.000661147826,27.5294241 L0.000661147826,41.7595292 C3.6204455,37.9568273 16.4037387,25.3784899 28.5170688,23.8203848 C36.0960267,22.8440899 43.9140998,22.855109 51.3343822,24.8396544 C59.0609965,26.9057414 67.7374598,30.7976982 71.4057283,38.365637 C74.9715189,45.7220085 73.3285665,54.3125226 70.3390765,61.5653142 C67.2228664,69.1255396 62.4284427,76.5854909 56.3602076,82.1270116 C48.2435161,89.5428864 7.87933941,85.2553427 0.000661147826,84.3352454 L0.000661147826,204.355614 L52.4241742,204.355614 C47.0898131,200.831696 32.848689,191.438989 31.2531189,190.370134 C29.287306,189.061061 24.6945325,184.249007 24.6945325,181.623148 C24.6945325,179.000595 30.6007864,175.93948 32.5665992,175.502021 C34.533514,175.064562 38.1235467,178.328428 40.958769,179.000595 C43.7917874,179.67166 49.1856518,178.124574 51.8115105,178.124574 C54.4351655,178.124574 61.2163384,184.468287 63.6229165,185.562487 C66.0283926,186.656687 70.6211662,186.4341 72.8084636,185.999947 C74.9935571,185.562487 76.9626758,184.249007 77.1797526,182.936628 C77.5378744,180.792306 72.6156288,176.677762 71.3175752,175.36869 C68.5308371,172.542283 65.149066,169.63764 60.9970577,169.377588 C58.5904796,169.225524 56.4042841,169.811742 54.543153,169.059135 C52.679818,168.302121 49.6715954,165.620065 48.6368991,164.466362 C45.1846055,161.420674 36.5764608,164.099425 32.3440128,165.53081 C28.8718848,166.710959 25.1253805,168.068516 21.4119335,168.075127 C15.2886027,168.08284 11.9387871,165.76111 11.7184045,164.236062 C11.495818,162.711014 14.4522507,161.458139 16.0918973,161.027291 C17.8285123,160.574405 19.5717387,159.268638 21.1199265,158.401432 C24.0080406,156.779416 26.8763203,155.122139 29.7523133,153.478085 C35.7279878,150.062155 42.7229318,145.510152 49.9459718,147.405442 C52.9002006,148.181189 56.7954632,152.15028 59.4136086,153.363486 C61.1612427,154.17229 63.4719544,154.50617 65.884042,154.80589 C62.9893165,149.571803 59.4653985,143.825327 58.8450215,142.434712 C57.5172163,139.451834 55.9712323,136.172541 53.0820163,134.396257 C49.2826201,132.059099 44.2127182,135.082749 40.2601561,133.628223 C36.8431238,132.370941 35.3676622,128.030505 35.3676622,124.769944 C35.3676622,120.52207 40.3615321,117.009171 43.2320156,114.475873 C46.7261818,111.39272 50.5586354,108.732702 54.8318542,106.840717 C59.9061638,104.589509 67.1435286,101.71021 72.9792601,103.120659 C75.4089784,103.706877 78.4513603,105.746518 82.168113,105.089778 C84.2892956,104.715127 82.3862918,100.059544 82.3862918,97.8711452 C82.3862918,91.3202721 85.4771578,85.2288968 87.5873213,79.1672732 C90.5294291,70.7200078 93.7679516,61.7768815 100.267035,55.3185692 C110.675705,44.9727076 127.573542,44.7787709 140.137554,51.8199953 L140.137554,1.10224362 L24.8245582,1.10224362 Z" id="Fill-13" fill="#FFFFFF"></path>
                    <path d="M24.6513375,69.6607388 C29.1989326,70.417753 33.8071329,70.7659576 38.3503204,71.5306852 C40.51007,71.8943165 42.765686,72.2579478 44.8317729,72.9995353 C47.1391789,73.8303777 49.4421771,74.2491047 51.7683155,74.9135583 C52.3986098,75.0953739 53.1302801,75.1802212 53.6867462,74.8243033 C54.3611169,74.3868438 54.525302,73.4369948 54.2950022,72.6656557 C54.0162182,71.7014817 53.2669173,71.0634741 52.8151329,70.2061857 C52.3468199,69.3345725 52.1881444,68.2877551 52.0129402,67.3235812 C51.5269966,64.6635631 51.0344415,62.3010616 49.405814,60.0829106 C47.9369639,58.0829384 46.0185333,56.428967 43.9524463,55.0670024 C40.0164129,52.4819144 35.1305305,50.6262929 30.3636547,50.7452995 C27.7377959,50.8158219 25.1857653,51.6246261 22.7736776,52.6703416 C19.9770223,53.8835478 17.180367,55.5231944 15.2476115,57.9341802 C14.0641569,59.4074379 10.4840415,64.006823 11.3115782,65.9439861 C11.9683183,67.4723395 19.4018237,68.7858198 24.6513375,69.6607388" id="Fill-15" fill="#FFFFFF"></path>
                    <path d="M109.211263,108.122793 C106.162269,109.190547 106.688984,118.758458 106.615156,121.131979 C106.417913,127.257513 106.554551,133.388557 106.625073,139.51299 C106.673557,144.320637 106.43334,150.018629 108.410172,154.515536 C110.817852,159.979923 112.786971,160.858148 117.160464,160.858148 C121.401727,160.858148 137.567893,154.893492 140.138656,147.552548 L140.138656,119.659823 C119.868966,120.335295 115.639824,105.874891 109.211263,108.122793" id="Fill-17" fill="#FFFFFF"></path>
                    <path d="M124.039817,81.2933042 C121.431589,82.1726308 119.668528,83.8310099 117.752301,85.7263004 C117.049281,86.4160979 116.318712,87.1841313 115.439386,87.6326099 C114.575486,88.0711713 113.600293,88.1670378 112.816833,88.7907206 C112.189844,89.2909891 111.771117,90.1703157 112.076347,90.9119032 C112.323176,91.5245668 112.973304,91.8694656 113.595885,92.0843386 C115.882355,92.8744103 118.006843,93.854011 120.370446,94.499732 C122.489425,95.0749306 124.547799,96.0688562 126.524631,97.0109919 C130.686556,98.9922315 134.656749,101.351427 138.814267,103.339278 C139.245115,103.54754 139.68588,103.759107 140.138766,103.970675 L140.138766,81.9831018 C137.333296,80.9263672 134.289812,80.4062642 131.37966,80.3181112 C128.910273,80.2431811 126.391299,80.4999268 124.039817,81.2933042" id="Fill-19" fill="#FFFFFF"></path>
                </g>
            </g>
        </g>
    </g>
</svg>